<svg width="10" height="11" viewBox="0 0 10 11" fill="none" xmlns="http://www.w3.org/2000/svg">
<g id="Chevron">
<path id="Vector" d="M8.96929 4.54551C9.23234 4.28131 9.23234 3.85297 8.96929 3.58877C8.70621 3.32458 8.27967 3.32458 8.01659 3.58877L4.99988 6.61833L1.98324 3.58885C1.72016 3.32465 1.29364 3.32465 1.03056 3.58885C0.767482 3.85304 0.767482 4.28138 1.03056 4.54558L4.51375 8.04358C4.51692 8.04692 4.52017 8.05021 4.52346 8.0535C4.60975 8.14021 4.71367 8.19846 4.82367 8.22825C4.82634 8.229 4.82904 8.22971 4.83175 8.23038C5.05492 8.28796 5.30167 8.22904 5.47638 8.05358C5.48071 8.04925 5.48496 8.04488 5.48917 8.04046L8.96929 4.54551Z" fill="#9E9EA7"/>
</g>
</svg>
